<svg id="Calque_1" data-name="Calque 1" xmlns="http://www.w3.org/2000/svg" viewBox="0 0 450.52 458.78"><defs><style>.cls-1{fill:#e5184f;}.cls-2{fill:#e33cd4;}.cls-3{fill:#1a4cd8;}.cls-4{fill:#2495e7;}.cls-5{fill:#16306c;}.cls-6{fill:#357ed0;}.cls-7{fill:#1f4d9c;}.cls-8{fill:#e89ef1;}.cls-9{fill:#eadcee;}.cls-10{fill:#80e0f8;}.cls-11{fill:#162247;}.cls-12{fill:#2dcaf3;}.cls-13{fill:#16151b;}</style></defs><title>fleche2</title><path class="cls-1" d="M1221.28,283l-.87,17.36c-12.82-2.12-22.09,3.81-29.06,13.66-20.67,29.19-47.33,53.15-69.86,80.82-36.53,44.88-75.6,87.7-113.3,131.65-4.79,5.58-7.29,3.59-10.88-.51C974.22,499.52,951,473.24,928,446.75c-39.21-45.1-78-90.57-117.57-135.35-13.93-15.76-16.41-15-31,1.27-.5-2-1-3.93-1.51-5.9,1-12.25,2.09-24.51-.55-36.71,3.15-14.11,7.92-7.49,13.31-1.27q39.82,46.08,79.94,91.91c37.94,43.38,76.83,85.94,113.06,130.8,3.83,4.75,9.47,7.16,13.32,12.45,4.92,6.77,9-.89,11.91-4.14,22.41-24.85,45.46-49.22,66.46-75.25,22.64-28.07,47.29-54.3,70.81-81.55,21.45-24.85,42.54-50,63.88-74.95,2.23-2.6,5.06-4.68,7.92-7.28C1222.56,268.49,1219.77,276,1221.28,283Z" transform="translate(-777.27 -260.78)"/><path class="cls-2" d="M777.81,337.94q-.09-3.35-.17-6.69.84-9.28,1.69-18.58c14.64-16.23,17.12-17,31-1.27C850,356.18,888.74,401.65,928,446.75c23,26.49,46.27,52.77,69.36,79.19,3.59,4.1,6.09,6.09,10.88.51,37.7-44,76.77-86.77,113.3-131.65,22.53-27.67,49.19-51.63,69.86-80.82,7-9.85,16.24-15.78,29.06-13.66q.48,3,1,5.93c-.16,30.91-.17,61.82-.6,92.73-.07,4.94,3.09,11.94-5.51,13.78-.3-29.09-.56-58.18-.93-87.27,0-4,.9-9.19-4.22-10.5-3.92-1-6.23,3.18-8.58,5.8-18.32,20.43-36.75,40.77-54.74,61.49-43.13,49.68-85.91,99.65-129.09,149.29-15.32,17.63-15.87,16.62-32.23-1.07-13.22-14.29-22.15-32.45-39-43.38l-5.85-6.41c-3.48-8.69-9.84-14.67-17.92-19q-4-5.73-8.11-11.44a646.68,646.68,0,0,0-61-69.82C837.23,361,821,341.56,804.44,322.36c-2.75-3.18-5.35-9.31-10.77-6.69-4.78,2.32-3.22,8.3-3.25,12.84-.17,29.61-.21,59.22-.29,88.83-.09.94-.15,1.87-.18,2.8-6.45-3.78-8-10.81-11.23-16.78Q778.27,370.66,777.81,337.94Z" transform="translate(-777.27 -260.78)"/><path class="cls-3" d="M1215.28,412.76c8.6-1.84,5.44-8.84,5.51-13.78.43-30.91.44-61.82.6-92.73,8.17,3.19,5.43,10.48,5.47,16.16.34,39.49-.94,79,.85,118.45,1,20.76-7,36.26-20.42,49.34-27.7,27.07-52.42,56.82-77.2,86.34-13.44,16-28.69,30.59-40.57,47.92-6,2.47-10.38,6.39-11.89,13l-.17.22c-8.52,3-10.14,10.94-12.89,18.06l0,.06c-3.92.14-6,2.22-6.3,6.09l0,0c-4.14.06-5.83,2.48-6,6.3l-.13.14c-4,.29-5.68,2.66-5.81,6.44l-.08.09c-6.46,1.79-10.17,6.24-12.05,12.45a3.91,3.91,0,0,0-1.06,2.25c-4.6,1.58-6.23,5-6.09,9.62l-.08.08c-4,0-6,2.17-6.22,6.14l0,0c-3.94.34-5.64,2.72-5.83,6.46l-.13.13-24.46-.4c-4.31-9.8-15.84-13.83-19.34-24.27,8.63,1.17,15.74,7.91,25,6.8l4.79,3c4.5,3.27,6.45-.85,8.52-3.28,10.53-12.33,20.86-24.82,31.26-37.26,28.47-30.84,56.41-62.13,82.5-95,21.71-24.39,42-50.32,65.55-72.73,22.2-21.08,28.71-45.25,25.56-73.92A6.39,6.39,0,0,0,1215.28,412.76Z" transform="translate(-777.27 -260.78)"/><path class="cls-4" d="M995.85,694.16c-9.25,1.1-16.36-5.64-25-6.81l.18,0c-.11-4.39-2.53-6.26-6.75-6.17C947.23,670.54,939,652.6,928,637c-4.89-7.62-9.81-15.21-18.72-18.84l-.13-.09c-5.4-13.67-19.35-20.8-25.73-33.71l-2.81-3a10.81,10.81,0,0,0-2.14-1,7.3,7.3,0,0,0-6.31-6.26l-9.38-12.44c-1-1.06-2-2.13-3-3.19Q833.47,528,807.18,497.65c.07-1.25.15-2.53.23-3.8l6.83-1.58q54.82,61.56,109.61,123.16c14,15.78,27.37,32,41,48.09,9.21,10.26,20.05,18.65,31,26.89Z" transform="translate(-777.27 -260.78)"/><path class="cls-5" d="M990.2,711.62l24.46.4C1006.34,721.88,998.18,722.39,990.2,711.62Z" transform="translate(-777.27 -260.78)"/><path class="cls-5" d="M1064.57,655.7c2.75-7.12,4.37-15.05,12.89-18.06C1077.58,646.81,1075.36,654.31,1064.57,655.7Z" transform="translate(-777.27 -260.78)"/><path class="cls-5" d="M1077.63,637.42c1.51-6.57,5.91-10.49,11.89-13C1090.79,633.58,1087.26,638.3,1077.63,637.42Z" transform="translate(-777.27 -260.78)"/><path class="cls-5" d="M1034.1,687.29c1.88-6.21,5.59-10.66,12.05-12.45C1045,681.78,1042.52,687.41,1034.1,687.29Z" transform="translate(-777.27 -260.78)"/><path class="cls-5" d="M1027,699.16c-.14-4.58,1.49-8,6.09-9.62C1033.62,694.39,1033.57,698.85,1027,699.16Z" transform="translate(-777.27 -260.78)"/><path class="cls-3" d="M964.29,681.23c4.22-.09,6.64,1.78,6.75,6.17C966.74,687.59,964.56,685.46,964.29,681.23Z" transform="translate(-777.27 -260.78)"/><path class="cls-5" d="M1014.79,711.89c.19-3.74,1.89-6.12,5.83-6.46Q1020.86,711.49,1014.79,711.89Z" transform="translate(-777.27 -260.78)"/><path class="cls-5" d="M1020.65,705.38c.18-4,2.18-6.09,6.22-6.14C1026.93,703.45,1024.78,705.41,1020.65,705.38Z" transform="translate(-777.27 -260.78)"/><path class="cls-5" d="M1046.23,674.75c.13-3.78,1.81-6.15,5.81-6.44C1052,672.19,1050,674.26,1046.23,674.75Z" transform="translate(-777.27 -260.78)"/><path class="cls-5" d="M1052.17,668.17c.2-3.82,1.89-6.24,6-6.3C1058.17,665.87,1056.17,668,1052.17,668.17Z" transform="translate(-777.27 -260.78)"/><path class="cls-5" d="M1058.22,661.85c.32-3.87,2.38-6,6.3-6.09C1064.45,659.89,1062.36,661.92,1058.22,661.85Z" transform="translate(-777.27 -260.78)"/><path class="cls-3" d="M778.72,403.36c3.19,6,4.78,13,11.24,16.78,3.56,20-7.93,41,4,60.46-11.61-4.2-16.43-12.91-16.25-24.79C778,438.33,778.38,420.85,778.72,403.36Z" transform="translate(-777.27 -260.78)"/><path class="cls-6" d="M794,480.6c-11.94-19.45-.45-40.45-4-60.46,0-.93.08-1.86.17-2.79l2.49,2.52c2.18,18.74-5.25,39.19,9.89,55.62.52,3,2.07,5.13,5.14,5.94l6.6,10.83-6.84,1.59-4.23-.62a3,3,0,0,1-.51-1.85l-3.12-3.91.09.1-5.55-6.48Z" transform="translate(-777.27 -260.78)"/><path class="cls-3" d="M794.09,481.09l5.55,6.48C795.64,487.25,794.23,484.72,794.09,481.09Z" transform="translate(-777.27 -260.78)"/><path class="cls-3" d="M803.18,493.23l4.23.62c-.08,1.27-.16,2.55-.23,3.8C803.65,498.17,803.44,495.68,803.18,493.23Z" transform="translate(-777.27 -260.78)"/><path class="cls-7" d="M862.76,561.6l-3.59.47c.19-1.22.39-2.44.58-3.66C860.76,559.47,861.76,560.54,862.76,561.6Z" transform="translate(-777.27 -260.78)"/><path class="cls-3" d="M799.55,487.47l3.12,3.91Z" transform="translate(-777.27 -260.78)"/><path class="cls-8" d="M946.45,487.12c16.89,10.93,25.82,29.09,39,43.38,16.36,17.69,16.91,18.7,32.23,1.07,43.18-49.64,86-99.61,129.09-149.29,18-20.72,36.42-41.06,54.74-61.49,2.35-2.62,4.66-6.81,8.58-5.8,5.12,1.31,4.17,6.52,4.22,10.5.37,29.09.63,58.18.93,87.27a6.25,6.25,0,0,1-1.25,2.11l-6.48.9q-.61-30.88-1.23-61.77c.07-5,.4-10.12,0-15.15-.16-2.36-1.22-5-4.76-4.5-8.27,1.15-24,30.12-21.3,39.29q-1.86,5.61-3.7,11.22c-2.06,1.93-4.12,3.86-6.17,5.76-.69-5.35-1.07-10.8-4.16-14.78-16.23,8.72-19.64,22.12-17.13,38q-2,5.24-4,10.48c-5.76-1.07-4.93,8.41-11,6.87-4.7-7.91,8.6-13.56,2.66-23.65-14,16.79-32.89,28.94-27.94,54l-1,4.72c-3.17,1.54-6,3.3-5.49,7.55-7.8,1.66-11,7.65-13.48,14.32-3.38-.05-5.4,1.42-5.58,5-4.39,1.36-2.9,6-4.86,8.72-2.39.36-4.77.72-7.15,1.06-2.32-3.2,0-8.93-6.21-10.95V511c-.34,2.06-.69,4.12-1,6.18-5,.47-5.08,6-8.32,8.26a7.36,7.36,0,0,0-.84-1.27,5.39,5.39,0,0,0-1.11-.69c-4.33,7.08-11.92,11.94-14,20.56-6.3-1.84-4.21,10.58-11.63,6.85-1.79-3.77,1.24-9.5-5.31-12-3.47,4.34-6.89,8.79-10.51,13.07-6.43,7.6,1.12,18.76-6.71,26-8.33-1.48-5.76-8.6-6.5-13.53-.9-6-4.25-14.3-8-13.59-12.83,2.42-10.1-8.41-13.46-15.35l-6.87,15-9-2.32-2.1-10.91c2.95-8.3.66-17-2.34-23.9-2.2-5.11-3.65-20.18-16.84-9.76C938.18,496.51,942.58,491.91,946.45,487.12Z" transform="translate(-777.27 -260.78)"/><path class="cls-8" d="M792.62,419.87l-2.49-2.52c.08-29.62.12-59.23.29-88.84,0-4.54-1.53-10.52,3.25-12.84,5.42-2.62,8,3.51,10.77,6.69,16.57,19.2,32.79,38.68,49.13,58.07l-3.27,3.31c-14.23-6.36-22.37-19.28-33-34.53-1.06,10.24-1.69,16.24-2.31,22.24-3.65-1.71-6.8-3.85-7.25-8.33-.47-9.75,3.53-20.66-6.45-29.89-5.14,10.28-2.78,19.16-3.66,27.67q-.3,28.41-.61,56.8Z" transform="translate(-777.27 -260.78)"/><path class="cls-8" d="M853.57,380.43a646.68,646.68,0,0,1,61,69.82c-6.34.76-5.94,5.58-6.12,10.1-.29,7-.64,13.95-1,20.93l-1.28.63L905,474.26c-.53-9.23,4.25-19.73-6.84-28.3-.7,8.63-1.25,15.57-1.81,22.5l-3.11-.88L892,461.26c3.87-22.41-5.87-38.12-24-50.78-4.12,7.34-1.69,14.21-2.68,20.66-6.92-1-5.31-10.07-11.35-11.88l-1.32-5.12c1-10.26.59-20.42-2.36-30.39Z" transform="translate(-777.27 -260.78)"/><path class="cls-8" d="M922.68,461.69c8.08,4.35,14.44,10.33,17.91,19l-7.87.87c-6.62-4.93-12.4-7.95-11.72,4.85.13,2.52-.12,5.06-.19,7.59l-3.09-.3-2.48-1.91-.44-5.07C914.94,477.61,913.3,467.91,922.68,461.69Z" transform="translate(-777.27 -260.78)"/><path class="cls-9" d="M922.68,461.69c-9.38,6.22-7.74,15.92-7.88,25.05l-3.7.26q-1.8-2.87-3.62-5.72c.33-7,.68-13.95,1-20.93.18-4.52-.22-9.34,6.12-10.1Q918.64,456,922.68,461.69Z" transform="translate(-777.27 -260.78)"/><path class="cls-9" d="M932.72,481.58l7.87-.87q2.94,3.19,5.86,6.41c-3.87,4.79-8.27,9.39-5.79,16.43l-.81,13.85-5.59-4.58q-.68-3-1.33-5.89Z" transform="translate(-777.27 -260.78)"/><path class="cls-10" d="M1207.55,415.77l6.48-.9c3.14,28.69-3.37,52.86-25.57,73.94-23.59,22.41-43.84,48.34-65.55,72.73l-2.7-3c.39-1.52.77-3,1.15-4.54l15.16-22.17c4.41-1.19,7.9-3.53,9.87-7.79q9.1-10.16,18.23-20.29c5.59-5,11.81-9.37,15.12-16.44l14.87-19.18c12.49-7.37,15.58-18.34,12.18-31.79Q1207.18,426.08,1207.55,415.77Z" transform="translate(-777.27 -260.78)"/><path class="cls-10" d="M1122.91,561.54c-26.09,32.9-54,64.19-82.5,95l-.54-.57c-2.43-8.83,6.61-12.11,9-18.6l.36-.67c3.31-1.36,6.14-3.13,6.19-7.27l0-.2c9.32-9,19.39-17.34,25.28-29.28,9.57-9.69,21.68-17.73,21.75-33.57,8.75,3.78,11.26-6.6,17.79-7.85Z" transform="translate(-777.27 -260.78)"/><path class="cls-10" d="M1040.41,656.57c-10.4,12.44-20.73,24.93-31.26,37.26-2.07,2.43-4,6.55-8.5,3.29.54-2.17,1.06-4.34,1.59-6.51,3.88-3.28,8.47-6,9.75-11.45L1027.5,662c3.67-2.92,6.46-7.68,12.37-6Z" transform="translate(-777.27 -260.78)"/><path class="cls-9" d="M1002.24,690.61c-.53,2.17-1,4.34-1.59,6.51l-4.81-3c0-1.24,0-2.49.07-3.74l.16-.12,6,.05Z" transform="translate(-777.27 -260.78)"/><path class="cls-10" d="M792.62,419.87l4.39-2.15c.12,6.08.25,12.15.35,18.22.19,10.51-1.73,21.68,9.1,28.84,1.41,4.17,5.28,4.15,8.6,5.06,7.47,19,23.75,30.8,36.75,45.29,3.61,7.42,8.53,13.62,16.23,17.19l6.75,8.2c13.5,15.93,27,31.89,40.52,47.75,7.6,8.88,14.31,18.69,24.83,24.64,4.66,7.31,11,13,17.85,18.12,1.61,6.81,7.37,6.18,12.38,6.9q2,5.77,4,11.56c-5.61,1.6-9.38-9.06-14.35-3.48-4.72,5.3,4.05,9.22,4.55,14.52.09,1,.21,2,.32,3-13.67-16-27.08-32.31-41-48.09q-54.61-61.75-109.61-123.16-3.29-5.43-6.58-10.84l-5.15-5.94C787.37,459.06,794.8,438.61,792.62,419.87Z" transform="translate(-777.27 -260.78)"/><path class="cls-9" d="M964.89,663.52c-.11-1-.23-2-.32-3-.5-5.3-9.27-9.22-4.55-14.52,5-5.58,8.74,5.08,14.35,3.48l.2.2c-2.43,12.28,5,16.75,15.12,19.09,2.62,3.73,6.12,7,6.45,12,0,3.19,0,6.37-.07,9.55l-.16.12C984.94,682.17,974.1,673.78,964.89,663.52Z" transform="translate(-777.27 -260.78)"/><path class="cls-7" d="M878.45,580.3c-4.4.22-6.47-1.9-6.32-6.26A7.3,7.3,0,0,1,878.45,580.3Z" transform="translate(-777.27 -260.78)"/><path class="cls-7" d="M883.4,584.33l-2.81-3Z" transform="translate(-777.27 -260.78)"/><path class="cls-4" d="M802.51,475.49l5.15,5.94C804.58,480.62,803,478.5,802.51,475.49Z" transform="translate(-777.27 -260.78)"/><path class="cls-3" d="M1207.55,415.77l-.75,20.6c-9-.8-12.91,3-12.16,12.21.53,6.48,0,13.05,0,19.58l-14.87,19.18c-5.16-7.34-2.17-16.06-4.06-24a13.37,13.37,0,0,0,1.43-.8c1.51-.17,3.44.18,4.47-.62,6.49-5,9.56-11.47,8.63-20-2.55-23.34,3.35-47.15-3.81-70.26,8.32-4,12.68-12.48,19.91-17.72Q1206.93,384.88,1207.55,415.77Z" transform="translate(-777.27 -260.78)"/><path class="cls-11" d="M1089,488.06c2.48-6.67,5.68-12.66,13.48-14.32q-.39,38.16-.77,76.32c-8.73,7.13-9.17,21.12-21.15,25.57q-1-32.6-2-65.18l0-8.7c2-2.72.47-7.36,4.86-8.72.54,7.46-1.4,15.38,4.32,26.54C1089.8,506.12,1090.36,497.15,1089,488.06Z" transform="translate(-777.27 -260.78)"/><path class="cls-11" d="M959.84,537.21l2.1,10.91q-.29,19.89-.58,39.77c-.51,1.92-1,3.85-1.53,5.78-1.47,5.92,3.47,15.89-4.43,16.91-5.82.75-11.26-7.52-13.13-14.94a15.88,15.88,0,0,0-1.26-2.76q-.1-34.41-.22-68.81C951.53,522.08,950.47,537.2,959.84,537.21Z" transform="translate(-777.27 -260.78)"/><path class="cls-12" d="M1078.53,501.75q0,4.35,0,8.69c-2.08,23.59-3.54,47.2,1,70.72l1.16,18.82c-5.9,11.94-16,20.28-25.28,29.27l0-54.68c0-1.91,0-3.82,0-5.73q.24-21.71.5-43.41c3.23-2.29,3.27-7.79,8.31-8.26q.6,34.89,1.22,69.78l0,5.84c-.08,3.78-2,8,2.39,11,4.82-2.61,2.76-6.92,2.88-10.62v-.09c6-28.71,4.75-57.48.77-86.28v-4Z" transform="translate(-777.27 -260.78)"/><path class="cls-12" d="M1039.87,656c-5.91-1.7-8.7,3.06-12.37,6q-.18-9.06-.35-18.13c2.27-27.74,2.77-55.49.2-83.24l.93-9.73c7.42,3.73,5.33-8.69,11.63-6.85.29,25.8.27,51.62,1.09,77.4.19,5.84-2,14.3,7.87,16C1046.48,643.89,1037.44,647.17,1039.87,656Z" transform="translate(-777.27 -260.78)"/><path class="cls-4" d="M1146.39,524.07c-2,4.26-5.46,6.6-9.87,7.78q-1.59-3.2-3.19-6.39,0-3.19,0-6.37c1.9-27.58,1.29-55.18.44-82.77.15-1.72.31-3.44.46-5.15,6.06,1.54,5.23-7.94,11-6.87l3.36,7.18c-4.1,12.35.36,25.41-3.18,37.8-3.66,5.89-3.53,11.87-.4,17.91l1.08,6.45c-.08,2.12-.17,4.25-.25,6.38Q1146.11,512,1146.39,524.07Z" transform="translate(-777.27 -260.78)"/><path class="cls-7" d="M1048.87,637.4c-9.9-1.67-7.68-10.13-7.87-16-.82-25.78-.8-51.6-1.09-77.4,2-8.62,9.63-13.48,14-20.56a5.39,5.39,0,0,1,1.11.69,7.36,7.36,0,0,1,.84,1.27q-.24,21.71-.49,43.4c-8.29-7.47-4.31-18.87-9.22-27.78-4.57,22.42-2.75,44.7-1.54,67,7-10.41,4.15-23.36,10.8-33.52l0,54.68a1.36,1.36,0,0,0,0,.21c-3.45,1.25-6.32,3-6.19,7.27Z" transform="translate(-777.27 -260.78)"/><path class="cls-11" d="M1186.4,371.7c7.16,23.11,1.26,46.92,3.81,70.26.93,8.53-2.14,15-8.63,20-1,.8-3,.45-4.47.62q-.25-38.86-.5-77.72,1.85-5.61,3.7-11.22Z" transform="translate(-777.27 -260.78)"/><path class="cls-12" d="M961.36,587.9q.28-19.89.58-39.78l9,2.31c.1,1.71.21,3.42.31,5.12q.25,9.72.49,19.44l0,37.25.24,15.38-.15,9-1.46,1.34c-5-.73-10.77-.1-12.37-6.91C964.77,617.09,961.77,602.39,961.36,587.9Z" transform="translate(-777.27 -260.78)"/><path class="cls-3" d="M1133.33,525.46q1.61,3.19,3.19,6.39-7.57,11.1-15.16,22.18c-13.15-6.61-13.95-18-13.37-31,.85-18.9,0-37.89,0-56.84.33-1.57.66-3.15,1-4.72l5.19-.15v76.46Z" transform="translate(-777.27 -260.78)"/><path class="cls-4" d="M1107.94,466.19c.1,18.95.9,37.94,0,56.84-.58,13,.22,24.39,13.37,31-.38,1.51-.76,3-1.15,4.54-6.53,1.24-9,11.62-17.79,7.83q-.36-8.17-.74-16.34.38-38.16.77-76.32C1101.9,469.49,1104.77,467.73,1107.94,466.19Z" transform="translate(-777.27 -260.78)"/><path class="cls-2" d="M971.23,555.55c-.1-1.7-.21-3.41-.31-5.12,2-4.45,4.07-8.9,6.87-15,3.36,6.94.63,17.77,13.46,15.35,3.75-.71,7.1,7.55,8,13.59.74,4.93-1.83,12,6.5,13.53l.23.3a6.93,6.93,0,0,1,.55,2.1l-6.21,7.1c-2.16-5.25-4.53-10.29-10.89-11.59-1.29-2.16-3.26-2-5.31-1.56l-3.27-6C980.28,562,977.44,557.5,971.23,555.55Z" transform="translate(-777.27 -260.78)"/><path class="cls-2" d="M1114.11,461.32l-5.19.15c-4.94-25,14-37.16,27.95-54,5.94,10.09-7.36,15.74-2.66,23.65-.15,1.71-.31,3.43-.47,5.15-7.1,2.87-10.13,9.52-14.13,15.26C1116.07,453.87,1114.57,457.3,1114.11,461.32Z" transform="translate(-777.27 -260.78)"/><path class="cls-2" d="M1186.4,371.7l-6.09,1.94c-2.71-9.17,13-38.14,21.3-39.29,3.54-.49,4.6,2.14,4.76,4.5.35,5,0,10.11,0,15.15C1199.08,359.22,1194.72,367.69,1186.4,371.7Z" transform="translate(-777.27 -260.78)"/><path class="cls-6" d="M1176.61,384.86q.26,38.86.5,77.72a14.27,14.27,0,0,1-1.42.8c-5.73,0-3.22,6.47-6.58,8.32q.32-38.18.65-76.36c.23-1.57.45-3.13.68-4.69Z" transform="translate(-777.27 -260.78)"/><path class="cls-5" d="M1148.56,431.48l-3.36-7.18q2-5.24,4-10.48l9.09-4.07c-.19,22.56-.19,45.12-.72,67.67-.13,5.68,2.62,12.87-5.31,16.23.25-18.12.26-36.25.92-54.35C1153.28,435.08,1153.5,432.13,1148.56,431.48Z" transform="translate(-777.27 -260.78)"/><path class="cls-2" d="M959.84,537.21c-9.37,0-8.31-15.13-19.05-13.14-.31-2.22-.63-4.44-.94-6.66l.81-13.86c13.19-10.42,14.64,4.65,16.84,9.76C960.5,520.24,962.79,528.91,959.84,537.21Z" transform="translate(-777.27 -260.78)"/><path class="cls-2" d="M1158.24,409.75l-9.09,4.07c-2.51-15.86.9-29.26,17.13-38,3.09,4,3.47,9.43,4.16,14.78-.23,1.59-.45,3.15-.68,4.71-5.25-1.7-4.47,2.87-5.62,5.43C1159.86,402.24,1158.44,405.59,1158.24,409.75Z" transform="translate(-777.27 -260.78)"/><path class="cls-2" d="M1028.28,550.88l-.93,9.73c-11.15.95-11.55,15-21.37,17.57l-.23-.3c7.83-7.2.28-18.36,6.71-26,3.62-4.28,7-8.73,10.51-13.07C1029.52,541.38,1026.49,547.11,1028.28,550.88Z" transform="translate(-777.27 -260.78)"/><path class="cls-11" d="M1065.36,587q-.61-34.89-1.22-69.78c.34-2.06.69-4.12,1-6.17a6,6,0,0,1,1.94,1.08C1066.43,537,1071.58,562.13,1065.36,587Z" transform="translate(-777.27 -260.78)"/><path class="cls-3" d="M1089,488.06c1.39,9.09.83,18.06-1.26,31.51-5.72-11.16-3.78-19.08-4.32-26.54C1083.57,489.48,1085.59,488,1089,488.06Z" transform="translate(-777.27 -260.78)"/><path class="cls-2" d="M1067.1,512.08a5.84,5.84,0,0,0-1.93-1.08V491.86c6.24,2,3.89,7.75,6.21,10.95,0,1.35,0,2.69,0,4-.33,1.36-.67,2.73-1,4.11Z" transform="translate(-777.27 -260.78)"/><path class="cls-4" d="M806.46,464.77c-10.83-7.15-8.91-18.32-9.1-28.83-.1-6.07-.23-12.14-.35-18.22q.32-28.43.61-56.8l10.11,2.2c.45,4.48,3.6,6.62,7.25,8.31.38,1.78.77,3.58,1.15,5.37-.41,2.55-.81,5.1-1.22,7.65-9.63-6.17-5.29,3.4-5.47,5.51C807.39,414.84,812.46,440,806.46,464.77Z" transform="translate(-777.27 -260.78)"/><path class="cls-2" d="M816.13,376.81c-.38-1.8-.77-3.6-1.15-5.38.62-6,1.25-12,2.31-22.22,10.64,15.25,18.78,28.17,33,34.53,2.94,10,3.35,20.14,2.35,30.41-7.71-1.52-8.13-12.56-16.77-12.88-2.26-3.1-2.65-8.08-8-8.08C824.91,387,824.11,379.35,816.13,376.81Z" transform="translate(-777.27 -260.78)"/><path class="cls-2" d="M807.73,363.12l-10.11-2.2c.88-8.53-1.48-17.41,3.66-27.69C811.26,342.46,807.26,353.37,807.73,363.12Z" transform="translate(-777.27 -260.78)"/><path class="cls-6" d="M851.81,515.13c-13-14.49-29.28-26.31-36.75-45.3.4-3.58.79-7.16,1.19-10.73a12.51,12.51,0,0,0,10.28,3.78c1.52,3.73-6.6,6.91-1.19,10.3,5.06,3.17,6.9-4.73,11.44-4.77C839.19,477.33,838.64,488,854,493V419.26c6,1.81,4.43,10.92,11.35,11.88-.26,3.69,1.42,6.09,4.89,7.29-.53,10.27-1.71,20.57-1.46,30.82.57,23.12-6,48.35,17.67,65.26-5.08-.33-7.72,4.06-11.62,6L868,532.31c-3.73-11.19-2.78-23-4.73-34.88C861.3,504.79,854.24,508.39,851.81,515.13Z" transform="translate(-777.27 -260.78)"/><path class="cls-11" d="M886.42,534.51c-23.68-16.91-17.1-42.14-17.67-65.26-.25-10.25.93-20.55,1.46-30.82L892,461.26c.42,2.11.85,4.21,1.27,6.32-.32,20.21-.5,40.42-1.12,60.61C892.08,531,894.88,538.46,886.42,534.51Z" transform="translate(-777.27 -260.78)"/><path class="cls-12" d="M886.42,534.51c8.46,4,5.66-3.49,5.74-6.32.62-20.19.8-40.4,1.12-60.61l3.11.88c.18,1.38.37,2.76.56,4.13-.17,20.75.22,41.55-.67,62.28-.7,16.24,2.25,29.8,18.63,37,4.17,2.53,2.8-1.67,3.73-3.07a18.56,18.56,0,0,0,2.47.11l.54,5.34c0,5.44-2.26,13.25,5.56,13.73,8.56.52,6.36-7.86,6.47-13,.42-20.72.42-41.45.58-62.17l5.59,4.58c.31,2.23.63,4.45.94,6.67q.11,34.41.22,68.8-.45,10-.87,20c-10.52-5.95-17.23-15.76-24.83-24.64-13.57-15.86-27-31.82-40.52-47.75C878.7,538.57,881.34,534.18,886.42,534.51Z" transform="translate(-777.27 -260.78)"/><path class="cls-11" d="M854,419.26V493c-15.33-5-14.78-15.66-17.19-24.58q-.45-33.56-.9-67.14c8.64.32,9.06,11.36,16.77,12.88Z" transform="translate(-777.27 -260.78)"/><path class="cls-2" d="M892,461.26l-21.8-22.83c-3.47-1.2-5.15-3.6-4.89-7.29,1-6.45-1.44-13.32,2.68-20.66C886.14,423.14,895.88,438.85,892,461.26Z" transform="translate(-777.27 -260.78)"/><path class="cls-2" d="M897,472.6c-.19-1.38-.38-2.76-.56-4.14.56-6.93,1.11-13.87,1.81-22.5,11.09,8.57,6.31,19.07,6.84,28.31a17.65,17.65,0,0,0-2.8.4C901.81,470.57,900.38,469,897,472.6Z" transform="translate(-777.27 -260.78)"/><path class="cls-11" d="M902.24,474.67a17.65,17.65,0,0,1,2.8-.4l1.17,7.64c-.55,16.64-2.07,33.3.7,49.88.12,3.15,1.58,6.92-4.67,8.43Z" transform="translate(-777.27 -260.78)"/><path class="cls-6" d="M906.92,531.8c-2.78-16.59-1.26-33.25-.71-49.89l1.28-.63,3.62,5.72c-5.82,14.48-1.78,29.45-2.23,44.19A19.31,19.31,0,0,0,906.92,531.8Z" transform="translate(-777.27 -260.78)"/><path class="cls-2" d="M932.72,481.58l.21,25.35-4.24-.36c-1.64-3.32-3-6.95-7.4-7.51l-.48-5c.07-2.53.32-5.07.19-7.59C920.32,473.63,926.1,476.65,932.72,481.58Z" transform="translate(-777.27 -260.78)"/><path class="cls-12" d="M908.89,531.19c.44-14.74-3.6-29.71,2.22-44.19l3.69-.26c.15,1.69.29,3.38.44,5.07l-.51,39.2Z" transform="translate(-777.27 -260.78)"/><path class="cls-7" d="M914.73,531l.51-39.2,2.49,1.91q.45,37.56.91,75.12c-.93,1.4.44,5.6-3.73,3.07Z" transform="translate(-777.27 -260.78)"/><path class="cls-6" d="M918.64,568.84q-.45-37.56-.91-75.12l3.08.3.48,5-.18,69.9A20.43,20.43,0,0,1,918.64,568.84Z" transform="translate(-777.27 -260.78)"/><path class="cls-3" d="M928.69,506.57l4.24.36q.66,2.94,1.33,5.89c-.16,20.72-.16,41.45-.58,62.17-.11,5.17,2.09,13.55-6.47,13-7.82-.48-5.57-8.29-5.56-13.73,8.65-1.8,5.28-9.07,5.54-13.83C928.17,542.52,928.26,524.53,928.69,506.57Z" transform="translate(-777.27 -260.78)"/><path class="cls-3" d="M1158.24,409.75c.2-4.16,1.62-7.51,5.9-9l.72,78.31-.24,24.72q-9.12,10.14-18.23,20.29-.29-12-.58-24.05c3.93-.19,6.15-2.07,6.17-6.17l.23-.21c7.93-3.35,5.18-10.54,5.31-16.22C1158.05,454.87,1158.05,432.31,1158.24,409.75Z" transform="translate(-777.27 -260.78)"/><path class="cls-12" d="M1164.62,503.78l.24-24.72,4.25-7.36c3.36-1.85.85-8.34,6.58-8.32,1.88,7.9-1.11,16.62,4,24C1176.43,494.41,1170.21,498.81,1164.62,503.78Z" transform="translate(-777.27 -260.78)"/><path class="cls-12" d="M1194.61,468.16c.05-6.53.56-13.1,0-19.58-.75-9.23,3.21-13,12.16-12.21C1210.19,449.82,1207.1,460.79,1194.61,468.16Z" transform="translate(-777.27 -260.78)"/><path class="cls-3" d="M1101.68,550.06q.38,8.16.74,16.34c-.07,15.85-12.18,23.89-21.75,33.58l-1.14-18.82c.33-1.84.67-3.69,1-5.53C1092.51,571.18,1093,557.19,1101.68,550.06Z" transform="translate(-777.27 -260.78)"/><path class="cls-12" d="M1049.23,636.73c-.13-4.29,2.74-6,6.19-7.27C1055.37,633.6,1052.54,635.37,1049.23,636.73Z" transform="translate(-777.27 -260.78)"/><path class="cls-12" d="M1000.32,587.38l6.21-7.1c4.68,4.71,2.63,10.67,2.72,16.08.29,18,.19,35.93.25,53.89-.7,9.77-1.19,19.52,2.49,28.91-1.28,5.5-5.87,8.17-9.75,11.45l-.19-.27c.63-4.8-.31-8.64-5.91-9.6-.33-5-3.83-8.23-6.45-12-3.13-7.88-6.27-15.74-15.12-19.09l-.2-.2q-2-5.79-4-11.56c.49-.43,1-.88,1.46-1.33,4.6.74,9.12,1.34,8.56-5.69l.06-.1a8.08,8.08,0,0,0,2.79,1.13c.42,4.89,2.16,9,6.66,11.55.43,1.22.85,2.45,1.28,3.68-2.61,7,1,10,8.06,12.24V645.12Z" transform="translate(-777.27 -260.78)"/><path class="cls-3" d="M1012,679.16c-3.68-9.39-3.19-19.14-2.49-28.92,9.11,6.8,11.61-4.69,17.65-6.39q.18,9.06.35,18.13Z" transform="translate(-777.27 -260.78)"/><path class="cls-10" d="M996.14,680.74c5.6,1,6.54,4.8,5.91,9.6l-6-.05C996.09,687.11,996.12,683.93,996.14,680.74Z" transform="translate(-777.27 -260.78)"/><path class="cls-12" d="M816.25,459.1c-.4,3.57-.79,7.15-1.19,10.73-3.32-.9-7.19-.88-8.6-5.05,6-24.76.93-49.94,3-74.82.18-2.11-4.16-11.68,5.47-5.5Q815.59,421.78,816.25,459.1Z" transform="translate(-777.27 -260.78)"/><path class="cls-4" d="M940.14,612.91q.43-10,.87-20a16.32,16.32,0,0,1,1.26,2.77c1.87,7.42,7.31,15.69,13.13,14.94,7.9-1,3-11,4.43-16.91.49-1.93,1-3.86,1.53-5.78.41,14.5,3.41,29.2-3.36,43.14C951.1,625.92,944.8,620.22,940.14,612.91Z" transform="translate(-777.27 -260.78)"/><path class="cls-12" d="M851.81,515.13c2.43-6.74,9.49-10.34,11.49-17.7,2,11.9,1,23.69,4.73,34.88C860.34,528.75,855.42,522.55,851.81,515.13Z" transform="translate(-777.27 -260.78)"/><path class="cls-10" d="M974.57,649.69c8.85,3.35,12,11.21,15.12,19.09C979.57,666.44,972.14,662,974.57,649.69Z" transform="translate(-777.27 -260.78)"/><path class="cls-4" d="M1080.53,575.63c-.33,1.84-.67,3.69-1,5.53-4.5-23.52-3-47.13-1-70.72Q1079.55,543,1080.53,575.63Z" transform="translate(-777.27 -260.78)"/><path class="cls-5" d="M1055.37,574.57c-6.65,10.16-3.76,23.11-10.8,33.52-1.21-22.34-3-44.62,1.54-67,4.91,8.91.93,20.31,9.22,27.78C1055.34,570.75,1055.35,572.66,1055.37,574.57Z" transform="translate(-777.27 -260.78)"/><path class="cls-4" d="M1070.39,510.94c.33-1.38.67-2.75,1-4.11,4,28.8,5.25,57.57-.78,86.28Q1070.51,552,1070.39,510.94Z" transform="translate(-777.27 -260.78)"/><path class="cls-7" d="M1070.39,510.94q.1,41.09.22,82.17v.09l-5.27-.41,0-5.84c6.22-24.82,1.07-49.91,1.75-74.87Z" transform="translate(-777.27 -260.78)"/><path class="cls-4" d="M1065.33,592.79l5.27.41c-.12,3.7,1.94,8-2.88,10.62C1063.31,600.75,1065.25,596.57,1065.33,592.79Z" transform="translate(-777.27 -260.78)"/><path class="cls-11" d="M1027.15,643.85c-6,1.7-8.54,13.19-17.65,6.39-.06-18,0-35.92-.25-53.88-.09-5.41,2-11.37-2.72-16.08a6.93,6.93,0,0,0-.55-2.1c9.82-2.58,10.22-16.62,21.37-17.57C1029.92,588.36,1029.42,616.11,1027.15,643.85Z" transform="translate(-777.27 -260.78)"/><path class="cls-11" d="M1119.61,451.58c4-5.74,7-12.39,14.13-15.26.86,27.59,1.47,55.19-.43,82.77-9,5.82-13.33,4.51-13.15-7.36C1120.46,491.69,1119.84,471.63,1119.61,451.58Z" transform="translate(-777.27 -260.78)"/><path class="cls-7" d="M1119.61,451.58c.23,20.05.85,40.11.55,60.15-.18,11.87,4.13,13.18,13.15,7.36q0,3.18,0,6.37l-19.22,12.32V461.32C1114.57,457.3,1116.07,453.87,1119.61,451.58Z" transform="translate(-777.27 -260.78)"/><path class="cls-11" d="M1148.56,431.48c4.94.65,4.72,3.6,4.57,7.82-.66,18.1-.67,36.23-.92,54.35l-.23.2-5.92-.21-1.08-6.45q.21-8.94.4-17.91C1148.92,456.89,1144.46,443.83,1148.56,431.48Z" transform="translate(-777.27 -260.78)"/><path class="cls-3" d="M1145.38,469.28q-.2,9-.4,17.91C1141.85,481.15,1141.72,475.17,1145.38,469.28Z" transform="translate(-777.27 -260.78)"/><path class="cls-5" d="M1146.06,493.64l5.92.21c0,4.1-2.24,6-6.17,6.17C1145.89,497.89,1146,495.76,1146.06,493.64Z" transform="translate(-777.27 -260.78)"/><path class="cls-11" d="M971.23,555.55c6.21,2,9,6.46,9.62,12.68q-.2,31.29-.4,62.58l-.06.1L972,627.62l-.24-15.38c1.28.84,3.65,2.44,3.68,2.41,4.4-6.3,1.81-32.93-3.7-39.66Q971.48,565.27,971.23,555.55Z" transform="translate(-777.27 -260.78)"/><path class="cls-13" d="M971.72,575c5.51,6.73,8.1,33.36,3.7,39.66,0,0-2.4-1.57-3.68-2.41Q971.73,593.61,971.72,575Z" transform="translate(-777.27 -260.78)"/><path class="cls-7" d="M972,627.62l8.41,3.29c.56,7-4,6.43-8.56,5.69Z" transform="translate(-777.27 -260.78)"/><path class="cls-13" d="M991.18,647.17c-.43-1.23-.85-2.46-1.28-3.68q-.24-33.86-.47-67.7c6.36,1.3,8.73,6.34,10.89,11.59q-.54,28.88-1.08,57.73C996.25,644.59,993.39,644.61,991.18,647.17Z" transform="translate(-777.27 -260.78)"/><path class="cls-3" d="M989.43,575.79q.24,33.86.47,67.7c-4.5-2.54-6.24-6.66-6.66-11.55q.43-28.86.88-57.71C986.17,573.79,988.14,573.63,989.43,575.79Z" transform="translate(-777.27 -260.78)"/><path class="cls-7" d="M984.12,574.23q-.43,28.85-.88,57.71a8.08,8.08,0,0,1-2.79-1.13q.21-31.29.4-62.58Z" transform="translate(-777.27 -260.78)"/><path class="cls-5" d="M1169.11,471.7l-4.25,7.36-.72-78.31c1.15-2.55.37-7.12,5.62-5.42Q1169.43,433.52,1169.11,471.7Z" transform="translate(-777.27 -260.78)"/><path class="cls-5" d="M816.25,459.1q-.68-37.32-1.34-74.64c.41-2.56.81-5.11,1.22-7.66,8,2.55,8.78,10.23,11.71,16.39q-.65,34.85-1.31,69.69A12.51,12.51,0,0,1,816.25,459.1Z" transform="translate(-777.27 -260.78)"/><path class="cls-3" d="M826.53,462.88q.66-34.85,1.31-69.69c5.39,0,5.78,5,8,8.08q.45,33.59.9,67.14c-4.54,0-6.38,7.94-11.44,4.77C819.93,469.79,828.05,466.61,826.53,462.88Z" transform="translate(-777.27 -260.78)"/><path class="cls-3" d="M914.73,531l.18,40.9c-16.38-7.24-19.33-20.8-18.63-37,.89-20.73.5-41.53.67-62.28,3.43-3.58,4.86-2,5.29,2.08v65.55c6.25-1.51,4.79-5.28,4.67-8.43.65-.23,1.31-.43,2-.6Z" transform="translate(-777.27 -260.78)"/><path class="cls-13" d="M928.69,506.57c-.43,18-.52,35.95-1.5,53.89-.26,4.76,3.11,12-5.54,13.83l-.54-5.34.18-69.89C925.72,499.62,927.05,503.25,928.69,506.57Z" transform="translate(-777.27 -260.78)"/><path class="cls-3" d="M991.18,647.17c2.21-2.56,5.07-2.58,8.06-2.06v14.3C992.17,657.14,988.57,654.12,991.18,647.17Z" transform="translate(-777.27 -260.78)"/></svg>