<svg id="Calque_1" data-name="Calque 1" xmlns="http://www.w3.org/2000/svg" viewBox="0 0 564.26 329.78"><defs><style>.cls-1{fill:#357ed0;}.cls-2{fill:#1f4d9c;}.cls-3{fill:#e5184f;}.cls-4{fill:#e33cd4;}.cls-5{fill:#1a4cd8;}.cls-6{fill:#2495e7;}.cls-7{fill:#e89ef1;}.cls-8{fill:#321533;}.cls-9{fill:#162247;}.cls-10{fill:#2dcaf3;}.cls-11{fill:#16306c;}.cls-12{fill:#8a49b6;}.cls-13{fill:#80e0f8;}.cls-14{fill:#eadcee;}.cls-15{fill:#16151b;}</style></defs><title>fleche1</title><path class="cls-1" d="M737.91,444.62c-.13-7-3.78-12.16-11.93-12.06-10.06.12-20.15.86-30.14.12-8.52-.64-10,3.94-10.27,10.45a9.83,9.83,0,0,1,.94,1.19l4-.48,4.44.34c4-1.89,8.06-1,12.12-.28a4.57,4.57,0,0,1,1.36-.11c5.58,1.29,15.61-4.26,16.05,3.55.56,9.76-10.26,5.27-16.28,6.67-1.14,1.21-2.28,2.42-3.42,3.65.1.94.21,1.88.31,2.82,2.18.34,4.35.8,6.54,1,4.14.38,10.77-5.88,11.7,2.55.64,5.89-5,8.84-11.21,8.91a53.74,53.74,0,0,0-6.63.87c-4.16,3.72-1.85,5.72,2,7.32,4.06-2.95,8.9-2.21,13.26-1.92,3.29.22,6.43-6.28,8.87-1,2.26,4.87-.38,8.82-6.19,9.67l0,9.72c3.62.69,6.77,1.79,6.62,6.43-.12,3.94-2.7,5-5.93,5.54,3,14.82-6.22,14.3-16.15,13l-4.57-.84q-.9,2.82-1.81,5.66c6.44,4.24-2.86,12.67,4.43,16.68l18,3.8c1.18-7.08-2.83-10-9-11-3.79-.62-7.7-1.2-7-6.28s5-4.83,8.54-4.58c4.56.32,12.23-3.16,12.71,3.43.42,5.84,3.82,14.57-5.22,18.54.07,7.47-.66,14.29-10.9,13.36,1.9,4.38-.67,6-4.31,7,2.4,1,2.77,2.7,1.68,4.89,26.45,1.6,26.47,1.6,28.35-23.73.23-3.18.11-6.4.09-9.6C738.63,508.05,738.51,476.33,737.91,444.62Z" transform="translate(-670.83 -338.02)"/><path class="cls-2" d="M1031,645.67c-.3-21.52-.74-43-.08-64.55.32-10.4-3.5-13.62-13.42-13.57-42.57.2-85.14-.09-127.72-.21-5.9,0-11.93,1-17.47-2.07-2.12.69-5,.39-4.84,3.92,5.48,4,10.83,8.18,16.47,11.93,6.87,4.57,14,6,21,0-3.23-.57-7.48,1.48-9-3.27-.19-.57,1.29-2.29,2.24-2.54,3.87-1,7.17-.38,8.25,4.26l110.61-.5c5.86,0,9.12.31,10,8.61,2.58,24.55.35,49.09,1.75,73.59l9.32-.34.17-3.82C1029,657.69,1031.11,650.57,1031,645.67Z" transform="translate(-670.83 -338.02)"/><path class="cls-3" d="M686.15,561.27c.23-39,.26-78,.36-116.95a9.83,9.83,0,0,0-.94-1.19c-12.44-3.21-14.87,3.43-14.73,14q.66,49.41.52,98.84c0,21.34,1.68,22.75,22.9,16.65C687,572.1,686.11,567.34,686.15,561.27Z" transform="translate(-670.83 -338.02)"/><path class="cls-3" d="M762.54,568.76c-6.62-.26-5.09-5.91-5.13-9.2-.42-35.72-.45-71.44-.52-107.15,0-2.23.29-4.62,3.07-5.44.22-1,.44-1.91.65-2.86-1.48-.5-3-1-4.41-1.51l-4.4.29c-6.66,2-5.53,7.57-5.54,12.42-.1,36.09.12,72.19-.29,108.29-.1,8.25,3.07,11.59,10.82,11.59l71.8-1.7-4-4.27C803.9,568.58,783.19,572.41,762.54,568.76Z" transform="translate(-670.83 -338.02)"/><path class="cls-4" d="M1042.28,361.13c-3.37-1-4.83-3.49-5.14-6.82-11.92-.49-5.48,10-8.81,14.68,2.71,20.14.13,40.3.05,60.43-.52,1.05-1,2.12-1.54,3.2.88,2.69,2.05,5.15,5,6.1,5,1.36,11,2.86,10.85-5C1042.25,409.55,1044.78,385.32,1042.28,361.13Z" transform="translate(-670.83 -338.02)"/><path class="cls-3" d="M861.07,453.46q.42,48.57.86,97.13c.05,5.46.34,10.91.51,16.36l5.07,2.24c-.19-3.53,2.72-3.23,4.84-3.92q.25-58.39.52-116.79c-.36-.38-.71-.77-1.06-1.17C867.89,448.77,861.44,445.82,861.07,453.46Z" transform="translate(-670.83 -338.02)"/><path class="cls-4" d="M708.79,568.21c-16.37,1.56-18.52-7.61-18.23-21.44.73-34.3.06-68.62,0-102.93l-4,.48c-.1,39-.13,78-.36,117,0,6.07.84,10.83,8.11,11.38,5.38,1.14,10.78,1.74,16.21.45C711.56,570.91,711.19,569.22,708.79,568.21Z" transform="translate(-670.83 -338.02)"/><path class="cls-5" d="M1215,476.77c-18.08-13.3-34.15-28.88-51.5-43-19.14-15.56-38.22-31.24-56.56-47.72-16.7-15-34-29.52-48.45-46.92-20.59-2.63-21.63-1.89-21.35,15.15.31,3.33,1.77,5.79,5.13,6.83a2.25,2.25,0,0,1,1.84-1l1.76-14.37,92.43,81.39c3.11,1.34,5.81,3.14,7.15,6.45,8,5.67,16.15,11.06,21.71,19.4a29.22,29.22,0,0,1,12.09,9.63c12.51,10.52,24.9,21.19,37.58,31.51,5.39,4.38,5.7,8.78,1.84,14.05q-2.6,8.63-5.2,17.24c8.37-3.53,12.54-11.7,19-17.28a7,7,0,0,0,1-9.94C1227.77,490.68,1222.42,482.23,1215,476.77Z" transform="translate(-670.83 -338.02)"/><path class="cls-6" d="M1183.94,537.54c-16.69,18.72-36.58,34-55.22,50.59-25.25,22.48-51.35,44-77.09,65.92,6,4.1,8.88-1.17,12.28-4.3,4.89-4.5,9-10.2,16.76-9.68l.46-.51c.62-3.18,2.64-4.66,5.78-4.78l27.12-22a7,7,0,0,1,5.34-4.09l.51-1.06c.08-3.74,2.42-5.11,5.72-5.46.92-4.13,4.06-5.36,7.71-5.93,9-8.81,18.71-17,26.81-26.58,13.64-16.1,34.8-22.73,47.89-39.28l4.89-3.14a5.62,5.62,0,0,0,.57-1.78q2.61-8.62,5.2-17.24l-5,3.24C1204.18,520.61,1196.73,532.11,1183.94,537.54Z" transform="translate(-670.83 -338.02)"/><path class="cls-5" d="M1208,530.35l5.16-.16-.27-3Z" transform="translate(-670.83 -338.02)"/><path class="cls-7" d="M702.2,560.09c-5.19,1.06-7.72-1.36-7.64-6.36s1.63-8.87,7.68-8.63l3.69-1.09c-7.28-4,2-12.44-4.42-16.68-5.55,1-7-2.15-6.91-6.87.14-5.66,1.15-10.7,8.11-11.57.07-3.15.88-5.93,3.89-7.56-4.78-1.52-7.27-4.6-7.18-9.79.11-5.61,5.12-3.52,7.74-5.17.1-1.74.19-3.49.28-5.23-3.8-1.61-6.11-3.61-2-7.33l-3.06-.49c-12.58-5.78-6-16.26-6.17-25.1-.44-1.35-.87-2.7-1.31-4.05l-4.44-.33c.11,34.31.78,68.63,0,102.93-.29,13.83,1.86,23,18.23,21.44,3.64-1,6.21-2.59,4.31-7Z" transform="translate(-670.83 -338.02)"/><path class="cls-8" d="M699.42,491.54c-.09,5.19,2.4,8.27,7.18,9.79,5.59-1.24,12,1.32,16.76-3.75q0-4.86,0-9.72l-16.21-1.49C704.54,488,699.53,485.93,699.42,491.54Z" transform="translate(-670.83 -338.02)"/><path class="cls-9" d="M724,547.81l-18-3.8-3.69,1.09c.77,5,2.62,10,0,15l10.88,1.14c10.24.93,11-5.89,10.9-13.36Z" transform="translate(-670.83 -338.02)"/><path class="cls-10" d="M716.51,525.91c-3.52-.25-7.85-.36-8.54,4.58s3.21,5.66,7,6.28c6.16,1,10.17,4,9,11l0,.07c9-4,5.64-12.7,5.22-18.54C728.74,522.75,721.07,526.23,716.51,525.91Z" transform="translate(-670.83 -338.02)"/><path class="cls-10" d="M723.36,497.58c-4.73,5.07-11.17,2.51-16.76,3.75-3,1.63-3.82,4.41-3.89,7.56a23.42,23.42,0,0,0,2.34.56l13.58.27,5.41-.17c3.23-.5,5.81-1.6,5.93-5.54C730.12,499.37,727,498.27,723.36,497.58Z" transform="translate(-670.83 -338.02)"/><path class="cls-11" d="M711.63,461.48c-2.19-.2-4.36-.66-6.54-1q-1.33,6.42-2.66,12.84l3.06.49a53.74,53.74,0,0,1,6.63-.87c6.19-.07,11.85-3,11.21-8.91C722.4,455.6,715.77,461.86,711.63,461.48Z" transform="translate(-670.83 -338.02)"/><path class="cls-4" d="M696.24,448.22c.16,8.84-6.39,19.32,6.19,25.1q1.32-6.42,2.66-12.84c-.1-.94-.21-1.88-.31-2.81C701.15,455.22,703.85,447.05,696.24,448.22Z" transform="translate(-670.83 -338.02)"/><path class="cls-10" d="M720.7,479.21c-4.36-.29-9.2-1-13.26,1.93-.09,1.74-.18,3.49-.28,5.23l16.22,1.49c5.81-.85,8.45-4.8,6.19-9.67C727.13,472.93,724,479.43,720.7,479.21Z" transform="translate(-670.83 -338.02)"/><path class="cls-5" d="M708.43,443.79a4.57,4.57,0,0,0-1.36.11c.38,3.37.75,6.74,1.13,10.11,6-1.4,16.84,3.09,16.28-6.67C724,439.53,714,445.08,708.43,443.79Z" transform="translate(-670.83 -338.02)"/><path class="cls-8" d="M705.05,509.45c-3.44,3.67-2.68,7.93-1.73,12.21l4.57.85c5.27-2.84,13.84-2.92,10.74-12.79Z" transform="translate(-670.83 -338.02)"/><path class="cls-4" d="M702.71,508.89c-7,.87-8,5.91-8.11,11.57-.12,4.72,1.36,7.85,6.91,6.87q.91-2.83,1.81-5.67c-1-4.28-1.71-8.54,1.73-12.21A23.42,23.42,0,0,1,702.71,508.89Z" transform="translate(-670.83 -338.02)"/><path class="cls-12" d="M695,444.17q.66,2,1.29,4.05c7.61-1.17,4.91,7,8.54,9.44,1.14-1.23,2.28-2.44,3.42-3.65-.38-3.37-.75-6.74-1.13-10.11C703,443.2,699,442.29,695,444.17Z" transform="translate(-670.83 -338.02)"/><path class="cls-2" d="M718.63,509.72c3.1,9.87-5.47,9.95-10.74,12.79,9.93,1.34,19.19,1.86,16.15-13Z" transform="translate(-670.83 -338.02)"/><path class="cls-5" d="M1026.84,432.62q-69.76-.48-139.53-.9c-10.17-.05-14.24,6.51-15.5,15.59.35.4.7.79,1.06,1.17,3.67-.47,7.46-.67,9.69-4.35,4-3.35,8.69-2.06,13.14-2.08q66.4-.27,132.81-.39l3.37-2.93C1028.89,437.77,1027.72,435.31,1026.84,432.62Z" transform="translate(-670.83 -338.02)"/><path class="cls-5" d="M839.8,431.79c-23.72.41-47.46.5-71.18.14-8-.13-11.87,2.93-12.42,10.67l4.39,1.51,2.4-1.63c7.66-6.16,16.56-2.4,24.82-2.76,15.43-.67,30.92.11,46.37-.35,8.11-.25,11.36,2.24,11.11,10.81-.5,17.72,0,35.46,0,53.19,0,1.8,0,3.6,0,5.4,0,14-.78,28.1.3,42,1,13-3,18.75-16.38,16l-4.61,2.35c1.32,1.45,2.66,2.87,4,4.29L842.68,575c5.35-2.55,8.29-6.41,8.27-12.72q-.23-59.52-.06-119.06C850.92,435.22,848.27,431.64,839.8,431.79Z" transform="translate(-670.83 -338.02)"/><path class="cls-4" d="M1031.52,562.12c-45.27,1.23-90.58,1.23-135.87,1.49-9.73.06-13.17-5.22-13-14.94.52-33.4.36-66.81.45-100.22-.17-1.44-.35-2.89-.52-4.33-2.23,3.69-6,3.89-9.69,4.36q-.25,58.39-.52,116.79c5.54,3.05,11.57,2.05,17.47,2.07,42.58.12,85.15.41,127.72.21,9.92,0,13.74,3.17,13.42,13.57-.66,21.5-.22,43,.08,64.55.07,4.9-2,12,7.23,11.49l4.7-5.76c.14-26.09.13-52.18.5-78.27C1043.59,564.46,1041.27,561.85,1031.52,562.12Z" transform="translate(-670.83 -338.02)"/><path class="cls-5" d="M1063.91,649.75c-3.4,3.13-6.26,8.4-12.28,4.3-2.22.56-4.46,1.21-6.13-1.16L1043,651.4l-4.7,5.76c-.06,1.27-.12,2.54-.18,3.83,3.33,10.15,9.9,6.87,15.82,3.38,7.24-4.27,14.06-9.26,21.06-13.94.11-4.44,6.79-5.27,5.7-10.36C1072.91,639.55,1068.8,645.25,1063.91,649.75Z" transform="translate(-670.83 -338.02)"/><path class="cls-7" d="M785.2,563.29c-3.72-.12-9.87,2.87-10.34-4.89-.76-4.64-2.56-9.42,1.78-13.38-.34-2.11-.68-4.21-1-6.32-2.33-3.21-1.17-5.25,2.18-6.57l-1-3.74c-4.78-6.58-3.35-13.06.27-19.52-3.83-3.12-1.85-6.91-1.21-10.54-1.79-3.86-1.58-7.77-.27-11.7.39-2.57.77-5.13,1.16-7.69l-2.4-1.95c.68-.44,1.36-.88,2-1.33a5.54,5.54,0,0,1,.38-1.84l-3.09-.75c-7.92-1.94-4.62-8.48-5.38-13.29-.83-5.29,2.06-10.63-.15-15.93L763,442.48l-2.38,1.63c-.21.95-.43,1.91-.65,2.86,5.24,15.9,1.86,32.28,2.34,48.41.72,24.44.23,48.91.25,73.37,20.64,3.66,41.35-.17,62,.45l4.61-2.35c-.52-1.05-1.05-2.1-1.58-3.15C813.48,563.62,799.33,563.78,785.2,563.29Z" transform="translate(-670.83 -338.02)"/><path class="cls-4" d="M760,447c-2.78.82-3.08,3.21-3.07,5.44.07,35.71.1,71.43.52,107.15,0,3.29-1.49,8.94,5.14,9.19,0-24.46.47-48.93-.25-73.37C761.82,479.25,765.2,462.87,760,447Z" transform="translate(-670.83 -338.02)"/><path class="cls-7" d="M1058,376c-4.41-2.49-8.26-5.47-9.5-10.77l-4.37-5.08a2.23,2.23,0,0,0-1.83,1c2.5,24.19,0,48.42.45,72.63.15,7.82-5.82,6.32-10.85,5l-3.37,2.93,15.58,1.62,4.89-.16c5.09-1.28,5-4.94,5.27-9.37.54-9.78-1.67-19.75,1.7-29.36a6.12,6.12,0,0,1-.31-7.12c-2.57-5.6-.72-11.41-.78-17.13Z" transform="translate(-670.83 -338.02)"/><path class="cls-5" d="M1081.13,639.56c3.36.15,5.32-1.41,5.78-4.78C1083.77,634.9,1081.75,636.38,1081.13,639.56Z" transform="translate(-670.83 -338.02)"/><path class="cls-13" d="M1044.11,360.13l4.37,5.08c11.12-9,13.67,7.2,21.67,7.37,2.23,3.2,4.45,6.41,6.69,9.62a63.79,63.79,0,0,1,18.09,13.6c3,2,3.46,5.31,4.12,8.48,3.84.43,7.66.89,10.16,4.4l7.85,6.74c7.5,3,10.07,12.75,18.9,14l2.34-2.27-92.43-81.39Z" transform="translate(-670.83 -338.02)"/><path class="cls-13" d="M1216.83,494.14c-12.68-10.32-25.07-21-37.58-31.52l-2.07,2.51c6.46,6.54,1.87,8.42-4.1,9.72,6.9.19,14.28-1.06,18.86,6.2l13.79,10.9c13,8.27.77,11.73-3.19,16.77,3.44,2,9-4.5,11.14,2.72l5-3.25C1222.53,502.92,1222.22,498.52,1216.83,494.14Z" transform="translate(-670.83 -338.02)"/><path class="cls-13" d="M1145.45,433.6l-2.56,2.6,7,6.31c4.76,5,9,10.71,16.83,11l.47-.54C1161.6,444.66,1153.4,439.27,1145.45,433.6Z" transform="translate(-670.83 -338.02)"/><path class="cls-13" d="M1167.16,453l-.47.54c-.35,3.17,1.35,5.56,3,7.94l7.45,3.64c.68-.83,1.37-1.67,2.06-2.49A29.22,29.22,0,0,0,1167.16,453Z" transform="translate(-670.83 -338.02)"/><path class="cls-13" d="M1138.3,427.15l-2.34,2.27,6.93,6.78,2.56-2.6C1144.11,430.29,1141.41,428.49,1138.3,427.15Z" transform="translate(-670.83 -338.02)"/><path class="cls-13" d="M1180.08,530.07,1150,555.93q-20.43,18.87-40.9,37.73c-2.9,2.67-6.66,2.59-10.31,2.69a8.5,8.5,0,0,0-2.63.58c-.4,2.25-1.21,4.2-3.65,5-.24,7.66-4.24,12.66-11,15.69-9.61,5.67-13.37,19.4-27,19.61l-9,15.7c1.67,2.38,3.91,1.73,6.13,1.17,25.74-21.92,51.84-43.44,77.09-65.92,18.64-16.58,38.53-31.87,55.22-50.59C1181.12,535.85,1180.09,533.23,1180.08,530.07Z" transform="translate(-670.83 -338.02)"/><path class="cls-14" d="M1202.54,508.72c-8.45,6.1-17.85,11.21-22.46,21.36,0,3.15,1,5.77,3.86,7.46,12.79-5.43,20.24-16.93,29.74-26.1C1211.51,504.22,1206,510.74,1202.54,508.72Z" transform="translate(-670.83 -338.02)"/><path class="cls-4" d="M694.56,553.73c-.08,5,2.45,7.42,7.66,6.37,2.64-5,.79-10,0-15C696.19,544.86,694.63,548.83,694.56,553.73Z" transform="translate(-670.83 -338.02)"/><path class="cls-13" d="M895.7,442.05c-4.45,0-9.19-1.27-13.14,2.07.17,1.44.35,2.89.52,4.33l10.51.66c6.49-4.71,14-3.46,21.17-3.29,40,.94,80.11-2.36,120.11,1.51,3.36.33,7.55.48,9.21-4.05l-15.57-1.62Q962.11,441.84,895.7,442.05Z" transform="translate(-670.83 -338.02)"/><path class="cls-6" d="M841.84,481.56c-.92-4.73,1-9.95-2-14.49l-11.12,6.48c0,.78-.11,1.56-.19,2.34-11.53,5.65-23.81,1.33-35.69,2.61-5.31.57-10.7.31-16.05.43-.39,2.57-.77,5.13-1.16,7.69,15.87-.1,31.74-.09,47.61-.37,8.19-.14,11.67,3.41,10.34,11.54,6,.7,6.25,6,8,10l3.66,1c0-1.8,0-3.6,0-5.4C838.74,497,843.24,488.81,841.84,481.56Z" transform="translate(-670.83 -338.02)"/><path class="cls-13" d="M834.18,439.37c-15.45.46-30.94-.32-46.37.35-8.26.36-17.16-3.4-24.82,2.76l5.18,1.38,5.31-.12,65.61-.34c5.46,6.41,3.22,13,.38,19.55.12,1.39.23,2.76.35,4.13,3,4.53,1.1,9.75,2,14.48,1.4,7.25-3.1,15.44,3.46,21.81-.06-17.73-.51-35.47,0-53.19C845.54,441.61,842.29,439.12,834.18,439.37Z" transform="translate(-670.83 -338.02)"/><path class="cls-13" d="M845.28,508.77l-3.66-1q.23,22,.46,43.94c2.75,13.1-6.53,11.71-14.45,12l1.57,3.15c13.37,2.71,17.39-3,16.38-16C844.5,536.87,845.3,522.79,845.28,508.77Z" transform="translate(-670.83 -338.02)"/><path class="cls-7" d="M1055,571.92q0-5.61,0-11.23c-.58-1.56-1.17-3.12-1.75-4.69-6.7,4.82-14.18,1.58-21.18,1.64-42.76.35-85.53.19-128.3,0-4.85,0-13,2.76-10.22-7.82a6.34,6.34,0,0,1,1.35-1.89l-1-.86c-7.26-5.2-7-10.48-.17-15.84l.93-10.05-.06-.11c-1.76-1.31-3.6-2.62-.06-4v0c-.61-4.71-2.22-9.43.05-14.14.1-2.46.2-4.93.29-7.39-1.69-4.46-.75-8.9.1-13.35l-.33-9.26q-.33-10-.64-20l-.42-3.81-10.52-.65c-.09,33.41.07,66.82-.45,100.22-.15,9.72,3.29,15,13,14.94,45.29-.26,90.6-.26,135.87-1.49,9.75-.27,12.07,2.34,12,11-.37,26.09-.36,52.18-.5,78.27l2.53,1.48,9-15.7c.9-9.69-2.3-19.63,1.73-29.14a5.82,5.82,0,0,1,.48-6.23C1051.65,592.09,1055.7,581.88,1055,571.92Z" transform="translate(-670.83 -338.02)"/><path class="cls-10" d="M833.57,497.79l-57.68.54c-.64,3.63-2.62,7.42,1.21,10.54,16.39.1,32.78.08,49.16.35,4.42.08,9.7-.23,9.37,6.8-.29,6.21-4.68,7.38-9.5,7.25-16.67-.45-33.31-.89-49.31,5.12.33,1.24.65,2.49,1,3.74,12.55,3.28,25.34.81,38,1.57,5.36.32,11-1.16,15.9,2.25a5.83,5.83,0,0,0,2.37.43c10.33,1.12,3,11.49,8,15.36q-.23-22-.46-43.95C839.82,503.75,839.53,498.49,833.57,497.79Z" transform="translate(-670.83 -338.02)"/><path class="cls-2" d="M833.51,460.17c-1.11,1.33-2.07,3.68-3.34,3.86-17.35,2.46-34.63,1.42-51.93-.87,7-6.8,15.46-2,22.87-4.3-3.2-2.22-7.37-4.84.7-5.21,10.65-.49,21.33-.48,32-.68-2.82-6.6-8.7-3.49-13.22-3.85-15.4-1.23-31,1.89-46.3-1.91a79.31,79.31,0,0,1-.58,25.86l3.1.75,51.91-.27,11.11-6.47c-.12-1.37-.23-2.74-.35-4.12Z" transform="translate(-670.83 -338.02)"/><path class="cls-15" d="M823.23,486.25c-15.87.28-31.74.27-47.61.38-1.31,3.93-1.52,7.84.27,11.7l57.68-.54C834.9,489.66,831.42,486.11,823.23,486.25Z" transform="translate(-670.83 -338.02)"/><path class="cls-6" d="M834.06,536.38c0,1-.06,1.9-.08,2.86l-5,4.87c4.45,2.39,7.13,5.86,5.18,11-1.61,4.24-5.84,3.6-9.34,3.6-16.66,0-33.32-.18-50-.29.47,7.76,6.62,4.77,10.34,4.89,14.13.49,28.28.33,42.43.41,7.92-.26,17.2,1.13,14.45-12C837,547.87,844.39,537.5,834.06,536.38Z" transform="translate(-670.83 -338.02)"/><path class="cls-2" d="M829,544.11l-52.36.91c-4.34,4-2.54,8.74-1.78,13.38,16.66.11,33.32.27,50,.29,3.5,0,7.73.64,9.34-3.6C836.13,550,833.45,546.5,829,544.11Zm-50.46,7.76-.09-4c16-2.19,32-.49,48.07-.53,0,1.48,0,3,.05,4.42Z" transform="translate(-670.83 -338.02)"/><path class="cls-11" d="M826.26,509.22c-16.38-.27-32.77-.25-49.16-.35-3.62,6.46-5.05,12.94-.28,19.52,16-6,32.64-5.57,49.31-5.12,4.82.13,9.21-1,9.5-7.25C836,509,830.68,509.3,826.26,509.22ZM781.65,521.8c-.74.22-2.63-1-2.87-1.92a4.28,4.28,0,0,1,3.24-5.25c14.92-4.26,29.78-4.93,44.18,2C811.46,521.94,796.16,517.38,781.65,521.8Z" transform="translate(-670.83 -338.02)"/><path class="cls-1" d="M775.62,538.7l1,6.32,52.36-.91,5-4.87-57.16-.33Z" transform="translate(-670.83 -338.02)"/><path class="cls-6" d="M815.79,533.7c-12.66-.76-25.45,1.71-38-1.57-3.35,1.32-4.51,3.36-2.17,6.57l1.19.21c18-5.61,36.63-1.2,54.88-3C826.76,532.54,821.15,534,815.79,533.7Z" transform="translate(-670.83 -338.02)"/><path class="cls-4" d="M773.48,443.74l-5.31.11c2.21,5.3-.68,10.64.15,15.93.76,4.81-2.54,11.35,5.38,13.29a79.31,79.31,0,0,0,.58-25.86C774,446.05,773.75,444.9,773.48,443.74Z" transform="translate(-670.83 -338.02)"/><path class="cls-2" d="M774.38,477l2.4,1.94c5.35-.12,10.74.14,16.05-.43,11.88-1.28,24.16,3,35.69-2.61l-52.11-.23C775.74,476.11,775.06,476.55,774.38,477Z" transform="translate(-670.83 -338.02)"/><path class="cls-1" d="M776.41,475.66l52.11.23c.08-.78.15-1.56.19-2.34l-51.92.27A5.54,5.54,0,0,0,776.41,475.66Z" transform="translate(-670.83 -338.02)"/><path class="cls-10" d="M1070.61,453.49h0l-.13.1Z" transform="translate(-670.83 -338.02)"/><path class="cls-10" d="M1149.86,442.51c-5.94,4.72-12.71,2.55-19.24,2.3l-6.12.86c-18.75,3.57-37.54,3.08-56.34.43l-5.45-1.57c-4.65.22-9.51,2.54-13.73-1.4l-4.9.16c-1.66,4.52-5.85,4.37-9.21,4-40-3.87-80.08-.57-120.11-1.51-7.13-.17-14.68-1.42-21.16,3.28l.42,3.81c55.33.69,110.66,1.86,166-1,3.87-.19,7.14.67,10.63,1.54,5.36-5,12.07-3,18.08-2.75,20.25.78,40.74-3.14,60.77,2.65-7.18,5.62-15.57,2.41-23.36,3-12.24.86-24.55.7-36.83,1l.66,4.43c24.91,1.92,50-1.1,74.85,2.55l5-2.82c-1.7-2.38-3.4-4.77-3-7.94C1158.88,453.22,1154.62,447.48,1149.86,442.51Z" transform="translate(-670.83 -338.02)"/><path class="cls-1" d="M1136,429.42c-8.83-1.25-11.4-11-18.9-14-1.69,3.13-2.94,7.39-7,7.5q-24.21.61-48.43.26c-3.8-.06-3.08-3.55-2.2-6.23a3.57,3.57,0,0,1,.28-2c-1-3.48-1.92-7,.58-10.24l-4.35-.36c-3.36,9.61-1.15,19.58-1.69,29.36-.24,4.43-.18,8.09-5.27,9.38,4.22,3.94,9.08,1.62,13.73,1.4a1.81,1.81,0,0,0,.23-1.38c-5.23-4-10-8-2-13.9q25.21.12,50.43.22c10.49,0,17.06,4.9,19.2,15.34,6.54.25,13.31,2.42,19.25-2.3l-7-6.31Z" transform="translate(-670.83 -338.02)"/><path class="cls-5" d="M1054.86,380.14c.06,5.72-1.79,11.53.78,17.13l1.1-.34q7.88-18,24.45.8c4.79.87,9.5,1.1,13.75-1.92a63.92,63.92,0,0,0-18.09-13.61C1069.34,383.42,1062.12,381.52,1054.86,380.14Z" transform="translate(-670.83 -338.02)"/><path class="cls-10" d="M1094.94,395.81c-4.25,3-9,2.79-13.75,1.92-8.22,1.91-16.39,2.48-24.45-.79l-1.1.33a6.13,6.13,0,0,0,.3,7.12l4.35.35,29.42.45,9.33-.91C1098.39,401.11,1097.93,397.84,1094.94,395.81Z" transform="translate(-670.83 -338.02)"/><path class="cls-5" d="M1048.48,365.21c1.24,5.3,5.09,8.28,9.5,10.77l12.17-3.4C1062.15,372.41,1059.6,356.21,1048.48,365.21Z" transform="translate(-670.83 -338.02)"/><path class="cls-10" d="M1058,376l-3.12,4.16c7.26,1.38,14.48,3.28,22,2.06-2.24-3.21-4.46-6.42-6.69-9.62Z" transform="translate(-670.83 -338.02)"/><path class="cls-5" d="M1081.18,419.63l-4.66-.1c-6.15,2.19-11.59-.36-17.09-2.57-.88,2.67-1.6,6.16,2.2,6.22q24.21.39,48.43-.26c4.06-.11,5.31-4.37,7-7.5l-7.85-6.74C1103.68,422.08,1092.87,422,1081.18,419.63Z" transform="translate(-670.83 -338.02)"/><path class="cls-2" d="M1099,404.28l-9.33.91c15.82,15.84-5.26,9.89-8.53,14.45,11.69,2.35,22.5,2.44,28-11C1106.71,405.17,1102.89,404.71,1099,404.28Z" transform="translate(-670.83 -338.02)"/><path class="cls-10" d="M1205.73,492c-4.18,3.73-9.2,3.5-14.27,3.05-31.28,3.87-62.68.89-94,1.62-60.17,1.39-120.39-1.28-180.56,1.66l.12,4.37q121.34.15,242.68.33c7.76,0,15.52.38,23.28.57,2.52-.42,6.55-.94,6.65,1.43.16,3.52-3.54,4.22-6.86,3.59l-1.2.24c-.7,3.27-3.34,4.38-6,5.41a8.76,8.76,0,0,1-.36,2.59c0,2.63-.48,4.63-3.84,3.22-3,8.19-10.14,4.66-15.3,4.69-67.5.36-135,.33-202.5.46-5.91,0-11.82.5-17.73.77,0,1.49,0,3,0,4.49l189.29.53c12.22,0,24.44,0,38.41,0-6,11.38-13.93,15.15-23.94,15.24-19.67.17-39.35.82-59,.23-59.89-1.82-119.76-.36-179.64.53l-6,1a6.2,6.2,0,0,0-1.36,1.89q120.08.06,240.16.28c5.72,0,13.41-3.13,16.26,5.84l30.11-25.84c4.61-10.15,14-15.26,22.46-21.36C1206.5,503.68,1218.76,500.22,1205.73,492Z" transform="translate(-670.83 -338.02)"/><path class="cls-6" d="M1169.74,461.48l-5,2.82c4.41,6.18,2.23,8.29-4.73,8.31-19.61,0-39.23.46-58.85.5q-90.85.17-181.71.12c-6.37,0-12.74-.51-19.11-.78l-5.72.48.33,9.26q66.42-.54,132.84-1.1c5,0,10-.26,15.05-.39,2.79-7.11,9.08-4.84,14.14-4.9,38.68-.44,77.36-.66,116-.95,6-1.3,10.57-3.18,4.12-9.73Z" transform="translate(-670.83 -338.02)"/><path class="cls-10" d="M1173.07,474.85c-38.69.29-77.37.51-116,.95-5.06.06-11.35-2.21-14.14,4.9l137.63,1.16,11.42-.81C1187.36,473.79,1180,475,1173.07,474.85Z" transform="translate(-670.83 -338.02)"/><path class="cls-5" d="M1180.51,481.86l11,13.14c5.07.45,10.09.68,14.27-3.05l-13.8-10.9Z" transform="translate(-670.83 -338.02)"/><path class="cls-6" d="M1133.71,550.08q-120.07-.41-240.16-.28c-2.75,10.58,5.37,7.8,10.22,7.82,42.77.21,85.54.37,128.3,0,7-.06,14.48,3.18,21.18-1.64,25.91-5.75,51.86-4.53,77.87-.69,4.58.68,3.74,2.59,2,5.25-5.12,14.92-17.45,16.9-29.56,16.86-8.34,2.26,11.57,6.81-2,8.22-4,2.75-2.11,7.08-2.84,10.71,3.65-.1,7.41,0,10.31-2.69q20.51-18.81,40.91-37.74C1147.12,547,1139.43,550.1,1133.71,550.08Z" transform="translate(-670.83 -338.02)"/><path class="cls-1" d="M1121.53,563.5c-18.81,20.43-41.82,10.8-63.74,8.91l-2.75-.49c.66,10-3.39,20.17,1.64,29.89l35.79.07c2.44-.75,3.25-2.7,3.65-5-9,.25-18.06.62-27.09.68-4.76,0-9.06-.87-9.34-7.19s3.79-7.9,8.68-7.48c11.07.93,22.51-2.49,33.22,2.7,13.52-1.41-6.39-6,2-8.22,12.11,0,24.44-1.94,29.56-16.86l-8.63,1.63Z" transform="translate(-670.83 -338.02)"/><path class="cls-9" d="M1068.37,582.94c-4.89-.42-9,1.08-8.68,7.48s4.58,7.22,9.34,7.19c9-.06,18.06-.43,27.09-.68a8.5,8.5,0,0,1,2.63-.58c.73-3.63-1.18-8,2.84-10.71C1090.88,580.45,1079.44,583.87,1068.37,582.94Z" transform="translate(-670.83 -338.02)"/><path class="cls-1" d="M1056.18,608c-4,9.51-.82,19.45-1.72,29.14,13.59-.21,17.35-13.94,27-19.61C1077.27,603.1,1066,607.41,1056.18,608Zm7.08,12.69c-3.68.65-6.17-1.08-6-5.13.23-4.87,4-5.4,7.67-5.56,3.11-.13,6.41-.32,7.42,3.67C1071.1,618.55,1067.28,620,1063.26,620.73Z" transform="translate(-670.83 -338.02)"/><path class="cls-6" d="M1056.18,608c9.85-.63,21.09-4.94,25.24,9.53,6.81-3,10.81-8,11-15.69l-35.8-.07A5.84,5.84,0,0,0,1056.18,608Z" transform="translate(-670.83 -338.02)"/><path class="cls-5" d="M839.1,443.4l-65.62.34c.27,1.16.53,2.31.8,3.47,15.31,3.8,30.9.68,46.3,1.91,4.52.36,10.4-2.75,13.22,3.85C841.08,452.83,838.74,447.37,839.1,443.4Z" transform="translate(-670.83 -338.02)"/><path class="cls-6" d="M833.8,453c-10.66.2-21.34.19-32,.68-8.07.37-3.9,3-.7,5.21l32.4,1.31,6,2.78c2.84-6.58,5.08-13.14-.37-19.55C838.74,447.37,841.08,452.83,833.8,453Z" transform="translate(-670.83 -338.02)"/><path class="cls-11" d="M1042.88,480.7c-5,.13-10,.34-15.05.39q-66.42.57-132.84,1.1c-.85,4.45-1.79,8.89-.09,13.35l22,2.74c60.17-2.94,120.39-.27,180.56-1.66,31.34-.73,62.74,2.25,94-1.62l-11-13.14Zm79.68,11.39c-5.22,0-11.56,3.45-16.15-2.33-3.27,3.46-7.58,2.69-11.61,2.7q-87.85.15-175.7.14c-3.88,0-8.11.82-12.27-2.75,4.11-5.1,9.38-3.49,13.88-3.52,24.25-.15,48.53-.73,72.74.17,24.76.91,49.22-3.77,73.88-2.71,13.1.57,26.42.71,39,5.7,10.56-4.92,50.75-5,64,1.24C1152.7,493.81,1137.53,492.19,1122.56,492.09Z" transform="translate(-670.83 -338.02)"/><path class="cls-1" d="M910.25,514.64c-9.37.81-11.91-2.95-8.49-11.4l-7.16-.3c-2.27,4.7-.66,9.42-.05,14.13l280.6-.26a8.78,8.78,0,0,0,.36-2.6L930.28,514C923.6,514.19,916.89,514.07,910.25,514.64Z" transform="translate(-670.83 -338.02)"/><path class="cls-11" d="M894.54,517.05c0,1.33,0,2.65.06,4l.06.12c3,2.17,5.77,5.32,10,2.35,3-3.43,7.07-3.85,11.29-3.85l255.38.37c3.37,1.41,3.88-.59,3.85-3.22l-280.6.26Z" transform="translate(-670.83 -338.02)"/><path class="cls-2" d="M894,452.91q.32,10,.64,20l5.72-.48c0-.77,0-1.54,0-2.3-.42-5-1.45-11,6.23-10.71,12.57.44,25.41-2.62,37.67,2.49l3.05-.56c1.54-7.73,7.81-5,12.21-5,33.41,0,66.81.34,100.22.57,4,0,8.4,1.4,10.85-3.44-3.49-.87-6.76-1.73-10.63-1.54C1004.68,454.77,949.35,453.6,894,452.91Z" transform="translate(-670.83 -338.02)"/><path class="cls-11" d="M1131.12,555.31c-26-3.84-52-5.06-77.87.69.58,1.57,1.17,3.13,1.75,4.69,14.55,3.76,29.26.38,43.88,1,8.53.38,17.07.32,25.6.46l8.62-1.63C1134.86,557.9,1135.7,556,1131.12,555.31Z" transform="translate(-670.83 -338.02)"/><path class="cls-6" d="M1055,560.69q0,5.63,0,11.23l2.75.49c9.54-.54,19.09-1,28.62-1.64,5.73-.39,11.43,2.49,15.83-6,2.77-5.36,12.61-1.16,19.28-1.25l3-1.31c-8.53-.14-17.07-.08-25.6-.46C1084.26,561.07,1069.55,564.45,1055,560.69Z" transform="translate(-670.83 -338.02)"/><path class="cls-6" d="M904.64,523.51c-4.21,3-7-.18-10-2.35l-.93,10.05q.07,7.92.17,15.84l1,.86,6-1c-5.65-13-4.42-15.17,9-15.62l25.89-.87c0-1.5,0-3,0-4.49C925.47,524.17,914.8,527.19,904.64,523.51Z" transform="translate(-670.83 -338.02)"/><path class="cls-6" d="M894.89,495.54q-.14,3.69-.29,7.4l7.16.3,15.24-.59-.12-4.37Z" transform="translate(-670.83 -338.02)"/><path class="cls-4" d="M893.9,547.05q-.09-7.92-.17-15.84C886.89,536.57,886.64,541.85,893.9,547.05Z" transform="translate(-670.83 -338.02)"/><path class="cls-6" d="M894.6,521c0-1.34,0-2.66-.06-4C891,518.43,892.84,519.74,894.6,521Z" transform="translate(-670.83 -338.02)"/><path class="cls-11" d="M776.81,538.91l57.17.33c0-1,0-1.91.08-2.86a5.83,5.83,0,0,1-2.37-.43C813.44,537.71,794.85,533.3,776.81,538.91Z" transform="translate(-670.83 -338.02)"/><path class="cls-15" d="M778.24,463.16c17.3,2.29,34.58,3.33,51.93.87,1.27-.18,2.23-2.53,3.34-3.86l-32.4-1.31C793.7,461.15,785.19,456.36,778.24,463.16Z" transform="translate(-670.83 -338.02)"/><path class="cls-9" d="M778.45,547.92l.09,4,48-.06c0-1.47,0-2.94-.05-4.42C810.49,547.43,794.41,545.73,778.45,547.92Z" transform="translate(-670.83 -338.02)"/><path class="cls-15" d="M782,514.63a4.28,4.28,0,0,0-3.24,5.25c.24.88,2.13,2.14,2.87,1.92,14.51-4.42,29.81.14,44.55-5.18C811.8,509.7,796.94,510.37,782,514.63Z" transform="translate(-670.83 -338.02)"/><path class="cls-11" d="M1089.93,461.75c-47.54.28-95.08,1.75-142.6-.38l-3.05.56c-7.06,5.8-16.06.71-27,5.44l162.54-.18V470l-179.41.19c0,.76,0,1.53,0,2.3,6.37.27,12.74.77,19.11.78q90.85,0,181.71-.12c19.62,0,39.24-.47,58.85-.5,7,0,9.14-2.13,4.73-8.31C1139.92,460.65,1114.84,463.67,1089.93,461.75Z" transform="translate(-670.83 -338.02)"/><path class="cls-9" d="M1111.41,429.47q-25.22-.08-50.43-.22c-2.61,6.86,1.88,7.72,6.87,8.05,7.17.48,14.48-.77,23.35,2.28-10,5.6-19.49,2.11-28.26,3.57a1.81,1.81,0,0,1-.23,1.38l5.45,1.57,56.35-.43,6.1-.86C1128.47,434.37,1121.9,429.5,1111.41,429.47Z" transform="translate(-670.83 -338.02)"/><path class="cls-6" d="M1072.63,453.6l-1.08.07-1-.07c-2.46,4.69-6.83,3.35-10.78,3.33-33.41-.23-66.81-.57-100.22-.57-4.4,0-10.67-2.72-12.21,5,47.52,2.13,95.06.66,142.6.38l-.66-4.43C1083.76,455.93,1077.15,459.42,1072.63,453.6Z" transform="translate(-670.83 -338.02)"/><path class="cls-6" d="M1070.48,453.59h.06l.07-.11Z" transform="translate(-670.83 -338.02)"/><path class="cls-11" d="M1089.27,457.32c12.28-.27,24.59-.11,36.83-1,7.79-.55,16.18,2.66,23.36-3l-76.83.21C1077.15,459.42,1083.76,455.93,1089.27,457.32Z" transform="translate(-670.83 -338.02)"/><path class="cls-1" d="M1088.69,450.74c-6.06-.23-12.83-2.34-18.21,2.85l1.07.08,1.08-.07,76.83-.21C1129.43,447.6,1108.94,451.52,1088.69,450.74Z" transform="translate(-670.83 -338.02)"/><path class="cls-13" d="M1124.51,445.67l-56.35.43C1087,448.75,1105.75,449.24,1124.51,445.67Z" transform="translate(-670.83 -338.02)"/><path class="cls-9" d="M1060.29,404.75c-2.5,3.28-1.63,6.76-.58,10.24,5.68,1.25,12.52-1.81,16.81,4.54l4.66.11c3.27-4.56,24.35,1.39,8.53-14.45Z" transform="translate(-670.83 -338.02)"/><path class="cls-5" d="M1061,429.25c-8,5.85-3.27,9.91,2,13.9,8.77-1.46,18.29,2,28.26-3.57-8.87-3.05-16.18-1.8-23.35-2.28C1062.86,437,1058.37,436.11,1061,429.25Z" transform="translate(-670.83 -338.02)"/><path class="cls-2" d="M1059.71,415a3.59,3.59,0,0,0-.28,2c5.5,2.21,10.94,4.76,17.09,2.57C1072.23,413.18,1065.39,416.24,1059.71,415Z" transform="translate(-670.83 -338.02)"/><path class="cls-2" d="M1056.74,396.94c8.06,3.27,16.23,2.7,24.45.79Q1064.62,378.89,1056.74,396.94Z" transform="translate(-670.83 -338.02)"/><path class="cls-9" d="M1125.05,531l-189.29-.53-25.89.87c-13.41.45-14.64,2.59-9,15.62,59.88-.89,119.75-2.35,179.64-.53,19.65.59,39.33-.06,59-.23,10-.09,17.91-3.86,23.94-15.24C1149.49,531,1137.27,531,1125.05,531Z" transform="translate(-670.83 -338.02)"/><path class="cls-15" d="M917,502.65l-15.24.59c-3.42,8.45-.88,12.21,8.49,11.4,6.64-.57,13.35-.45,20-.63,1.52-5.28,5.9-5,10-5q120.63-.11,241.27-.17l1.2-.24.21-5c-7.76-.19-15.52-.55-23.28-.57Q1038.34,502.77,917,502.65Z" transform="translate(-670.83 -338.02)"/><path class="cls-9" d="M904.64,523.51c10.16,3.68,20.83.66,31.14,2.44,5.91-.27,11.82-.76,17.73-.77,67.5-.13,135-.1,202.5-.46,5.16,0,12.29,3.5,15.29-4.69l-255.38-.37C911.7,519.66,907.66,520.08,904.64,523.51Z" transform="translate(-670.83 -338.02)"/><path class="cls-11" d="M930.28,514l245.23.21c2.7-1,5.34-2.14,6-5.41q-120.65.07-241.27.17C936.18,509,931.8,508.73,930.28,514Z" transform="translate(-670.83 -338.02)"/><path class="cls-11" d="M1183,503.55l-.21,5c3.32.63,7-.07,6.86-3.59C1189.51,502.61,1185.48,503.13,1183,503.55Z" transform="translate(-670.83 -338.02)"/><path class="cls-11" d="M1102.24,564.75c-4.4,8.51-10.1,5.63-15.83,6-9.53.64-19.08,1.1-28.62,1.64,21.92,1.89,44.93,11.52,63.73-8.91C1114.85,563.59,1105,559.39,1102.24,564.75Z" transform="translate(-670.83 -338.02)"/><path class="cls-2" d="M1065,610c-3.71.16-7.44.69-7.67,5.56-.19,4,2.3,5.78,6,5.13,4-.72,7.84-2.18,9.11-7C1071.36,609.72,1068.06,609.91,1065,610Z" transform="translate(-670.83 -338.02)"/><path class="cls-15" d="M1067.33,483.79c-24.66-1.06-49.12,3.62-73.88,2.71-24.21-.9-48.49-.32-72.74-.17-4.5,0-9.77-1.58-13.88,3.52,4.16,3.57,8.39,2.75,12.27,2.75q87.84,0,175.7-.14c4,0,8.34.76,11.62-2.69l-.14-.28C1093.75,484.5,1080.43,484.36,1067.33,483.79Z" transform="translate(-670.83 -338.02)"/><path class="cls-15" d="M1106.28,489.49l.14.28c4.58,5.77,10.92,2.29,16.14,2.32,15,.1,30.14,1.72,47.71-1.36C1157,484.51,1116.84,484.57,1106.28,489.49Z" transform="translate(-670.83 -338.02)"/><path class="cls-9" d="M917.24,467.37c11-4.73,20,.36,27-5.44-12.26-5.11-25.1-2.05-37.67-2.49-7.68-.27-6.65,5.66-6.23,10.71l179.41-.19v-2.77Z" transform="translate(-670.83 -338.02)"/></svg>